[Header]                  # Header keywords are followed by a single value
FileType htr              # single word string
DataType HTRS             # Hierarchical translations followed by rotations and Scale
FileVersion 1             # integer
NumSegments   22        # integer
NumFrames  4          # integer
DataFrameRate    60      # integer
EulerRotationOrder ZYX    # one word string
CalibrationUnits mm   # one word string
RotationUnits Degrees     # one word string
GlobalAxisofGravity Y        # character, X or Y or Z
BoneLengthAxis Y
ScaleFactor 1.0000
[SegmentNames&Hierarchy]
#CHILD         PARENT
LowerTorso	GLOBAL
MidTorso1	LowerTorso
MidTorso2	MidTorso1
UpperTorso	MidTorso2
Neck	UpperTorso
Head	Neck
LCollar	UpperTorso
LUpArm	LCollar
LLowArm	LUpArm
LHand	LLowArm
RCollar	UpperTorso
RUpArm	RCollar
RLowArm	RUpArm
RHand	RLowArm
RThigh	LowerTorso
RLowLeg	RThigh
RFoot	RLowLeg
RToe	RFoot
LThigh	LowerTorso
LLowLeg	LThigh
LFoot	LLowLeg
LToe	LFoot
[BasePosition]
#SegmentName Tx, Ty, Tz, Rx, Ry, Rz, BoneLength
LowerTorso	245.857281	950.546486	248.637529	3.098927	-0.002210	0.042162	59.711333	
MidTorso1	0.000000	59.711333	0.000000	12.937915	-0.002675	-0.030860	59.789096	
MidTorso2	0.000000	59.789096	0.000000	-8.588562	0.003459	0.011437	83.428957	
UpperTorso	0.000000	83.428957	0.000000	-7.932331	-0.001012	-0.030752	241.957510	
Neck	0.000000	241.957510	0.000000	-0.094097	0.000027	0.097203	231.829248	
Head	0.000000	231.829248	0.000000	90.077927	-0.000108	-0.089730	91.574582	
LCollar	6.813599	237.360039	0.023153	2.387721	-0.015547	-90.013255	183.371476	
LUpArm	0.000000	183.371476	0.000000	5.326590	-0.698152	6.338799	275.550262	
LLowArm	0.000000	275.550262	0.000000	0.023606	-0.000027	0.019344	209.826044	
LHand	0.000000	209.826044	0.000000	0.056212	0.000012	-0.012212	145.298309	
RCollar	-7.320367	237.102711	-0.039007	12.450709	0.004248	90.115141	167.861514	
RUpArm	0.000000	167.861514	0.000000	-6.122028	-0.820027	-2.646363	291.470253	
RLowArm	0.000000	291.470253	0.000000	0.000001	0.000000	-0.000274	217.757286	
RHand	0.000000	217.757286	0.000000	0.000373	0.000000	0.000511	137.536656	
RThigh	-124.450736	-52.205152	84.621319	5.924306	0.309605	177.207098	421.029795	
RLowLeg	0.000000	421.029795	0.000000	-15.759515	-0.017515	3.120486	365.105663	
RFoot	0.000000	365.105663	0.000000	55.897303	0.149984	-4.373210	148.323736	
RToe	0.000000	148.323736	0.000000	45.100933	2.167436	3.449341	115.306227	
LThigh	124.374466	-52.388373	84.621456	5.928259	-0.221338	-178.140447	426.796764	
LLowLeg	0.000000	426.796764	0.000000	-15.759694	0.017551	-3.120303	361.153822	
LFoot	0.000000	361.153822	0.000000	55.897848	-0.150027	4.373120	146.718976	
LToe	0.000000	146.718976	0.000000	45.100748	-2.167253	-3.449489	114.060784	
#Beginning of Data. Separated by tabs
[LowerTorso]
#Fr     Tx      Ty      Tz      Rx      Ry      Rz      SF
143	-165.519531	-8.884355	-382.971710	1.816316	28.882109	-5.153047	1.000000	
144	-163.863800	-8.243234	-393.244873	2.286353	28.396225	-4.816884	1.000000	
145	-161.809769	-7.740820	-403.215851	2.700879	27.779129	-4.445356	1.000000	
146	-159.390152	-7.465179	-412.683563	3.026243	27.070206	-4.059617	1.000000	
[MidTorso1]
#Fr     Tx      Ty      Tz      Rx      Ry      Rz      SF
143	0.000000	0.000000	0.000000	3.466815	-1.586176	0.583640	1.000000	
144	0.000000	0.000000	0.000000	3.571142	-1.505548	0.411422	1.000000	
145	0.000000	0.000000	0.000000	3.665882	-1.370295	0.250851	1.000000	
146	0.000000	0.000000	0.000000	3.753819	-1.199917	0.102812	1.000000	
[MidTorso2]
#Fr     Tx      Ty      Tz      Rx      Ry      Rz      SF
143	0.000000	0.000000	0.000000	3.469625	-1.656263	0.340249	1.000000	
144	0.000000	0.000000	0.000000	3.573759	-1.550843	0.182010	1.000000	
145	0.000000	0.000000	0.000000	3.668064	-1.393147	0.043451	1.000000	
146	0.000000	0.000000	0.000000	3.755461	-1.202591	-0.077471	1.000000	
[UpperTorso]
#Fr     Tx      Ty      Tz      Rx      Ry      Rz      SF
143	0.000000	0.000000	0.000000	3.473834	-1.685519	0.108600	1.000000	
144	0.000000	0.000000	0.000000	3.577511	-1.559216	-0.033555	1.000000	
145	0.000000	0.000000	0.000000	3.671139	-1.383859	-0.149001	1.000000	
146	0.000000	0.000000	0.000000	3.757786	-1.178394	-0.242443	1.000000	
[Neck]
#Fr     Tx      Ty      Tz      Rx      Ry      Rz      SF
143	0.000000	0.000000	0.000000	-15.966689	-16.516214	2.505121	1.000000	
144	0.000000	0.000000	0.000000	-16.897943	-15.989315	1.482774	1.000000	
145	0.000000	0.000000	0.000000	-17.634161	-15.289240	0.136444	1.000000	
146	0.000000	0.000000	0.000000	-18.174555	-14.378663	-1.363223	1.000000	
[Head]
#Fr     Tx      Ty      Tz      Rx      Ry      Rz      SF
143	0.000000	0.000000	0.000000	1.648241	4.467109	0.140284	1.000000	
144	0.000000	0.000000	0.000000	1.903309	3.999822	0.168500	1.000000	
145	0.000000	0.000000	0.000000	2.082082	3.287671	0.170186	1.000000	
146	0.000000	0.000000	0.000000	2.155252	2.343661	0.133473	1.000000	
[LCollar]
#Fr     Tx      Ty      Tz      Rx      Ry      Rz      SF
143	0.000000	0.000000	0.000000	5.464185	1.516484	-15.464008	1.000000	
144	0.000000	0.000000	0.000000	5.663893	1.658929	-16.272038	1.000000	
145	0.000000	0.000000	0.000000	5.932289	1.837917	-17.152613	1.000000	
146	0.000000	0.000000	0.000000	6.227767	2.032140	-18.001030	1.000000	
[LUpArm]
#Fr     Tx      Ty      Tz      Rx      Ry      Rz      SF
143	0.000000	0.000000	0.000000	18.004967	32.804565	-50.121674	1.000000	
144	0.000000	0.000000	0.000000	17.896465	33.266273	-48.668724	1.000000	
145	0.000000	0.000000	0.000000	17.850389	33.940903	-47.068253	1.000000	
146	0.000000	0.000000	0.000000	17.838326	34.840225	-45.513115	1.000000	
[LLowArm]
#Fr     Tx      Ty      Tz      Rx      Ry      Rz      SF
143	0.000000	0.000000	0.000000	65.110062	-0.011150	-0.007165	1.000000	
144	0.000000	0.000000	0.000000	62.286171	-0.010882	-0.006620	1.000000	
145	0.000000	0.000000	0.000000	59.451115	-0.010587	-0.006087	1.000000	
146	0.000000	0.000000	0.000000	56.560291	-0.010260	-0.005559	1.000000	
[LHand]
#Fr     Tx      Ty      Tz      Rx      Ry      Rz      SF
143	0.000000	0.000000	0.000000	-3.894224	14.269021	-1.222709	1.000000	
144	0.000000	0.000000	0.000000	-4.546047	13.880054	-1.563885	1.000000	
145	0.000000	0.000000	0.000000	-5.593367	13.648928	-2.288020	1.000000	
146	0.000000	0.000000	0.000000	-6.848656	13.384093	-3.248714	1.000000	
[RCollar]
#Fr     Tx      Ty      Tz      Rx      Ry      Rz      SF
143	0.000000	0.000000	0.000000	0.595727	-0.177075	16.557501	1.000000	
144	0.000000	0.000000	0.000000	0.850627	-0.249840	16.369749	1.000000	
145	0.000000	0.000000	0.000000	1.071507	-0.308354	16.054897	1.000000	
146	0.000000	0.000000	0.000000	1.262730	-0.354775	15.692485	1.000000	
[RUpArm]
#Fr     Tx      Ty      Tz      Rx      Ry      Rz      SF
143	0.000000	0.000000	0.000000	11.500304	-39.885426	47.260918	1.000000	
144	0.000000	0.000000	0.000000	12.230396	-39.712147	47.047085	1.000000	
145	0.000000	0.000000	0.000000	12.927116	-39.757618	46.871956	1.000000	
146	0.000000	0.000000	0.000000	13.470716	-39.927227	46.727348	1.000000	
[RLowArm]
#Fr     Tx      Ty      Tz      Rx      Ry      Rz      SF
143	0.000000	0.000000	0.000000	41.457890	0.000112	0.000027	1.000000	
144	0.000000	0.000000	0.000000	40.553722	0.000110	0.000026	1.000000	
145	0.000000	0.000000	0.000000	39.589344	0.000107	0.000025	1.000000	
146	0.000000	0.000000	0.000000	38.751385	0.000105	0.000023	1.000000	
[RHand]
#Fr     Tx      Ty      Tz      Rx      Ry      Rz      SF
143	0.000000	0.000000	0.000000	-7.575512	-0.956615	-4.002057	1.000000	
144	0.000000	0.000000	0.000000	-7.782069	-0.824495	-4.389058	1.000000	
145	0.000000	0.000000	0.000000	-7.661425	-0.420197	-4.728792	1.000000	
146	0.000000	0.000000	0.000000	-7.314445	0.040742	-4.772445	1.000000	
[RThigh]
#Fr     Tx      Ty      Tz      Rx      Ry      Rz      SF
143	0.000000	0.000000	0.000000	15.044411	14.710131	7.301385	1.000000	
144	0.000000	0.000000	0.000000	15.899283	14.985184	6.938363	1.000000	
145	0.000000	0.000000	0.000000	16.633549	15.048949	6.513022	1.000000	
146	0.000000	0.000000	0.000000	17.230907	14.928073	6.019787	1.000000	
[RLowLeg]
#Fr     Tx      Ty      Tz      Rx      Ry      Rz      SF
143	0.000000	0.000000	0.000000	-6.880067	0.000005	-0.000001	1.000000	
144	0.000000	0.000000	0.000000	-6.631533	0.000005	-0.000001	1.000000	
145	0.000000	0.000000	0.000000	-6.429002	0.000005	-0.000001	1.000000	
146	0.000000	0.000000	0.000000	-6.350155	0.000005	-0.000001	1.000000	
[RFoot]
#Fr     Tx      Ty      Tz      Rx      Ry      Rz      SF
143	0.000000	0.000000	0.000000	-4.220888	2.989076	-6.752067	1.000000	
144	0.000000	0.000000	0.000000	-4.879927	2.494216	-6.015162	1.000000	
145	0.000000	0.000000	0.000000	-5.197390	2.178903	-5.158339	1.000000	
146	0.000000	0.000000	0.000000	-5.005780	2.196188	-4.126668	1.000000	
[RToe]
#Fr     Tx      Ty      Tz      Rx      Ry      Rz      SF
143	0.000000	0.000000	0.000000	3.231495	0.000001	0.000002	1.000000	
144	0.000000	0.000000	0.000000	3.154536	0.000001	0.000002	1.000000	
145	0.000000	0.000000	0.000000	2.997279	0.000001	0.000001	1.000000	
146	0.000000	0.000000	0.000000	2.806419	0.000001	0.000001	1.000000	
[LThigh]
#Fr     Tx      Ty      Tz      Rx      Ry      Rz      SF
143	0.000000	0.000000	0.000000	2.230075	-5.265687	3.092445	1.000000	
144	0.000000	0.000000	0.000000	2.776776	-5.698328	2.269629	1.000000	
145	0.000000	0.000000	0.000000	3.207671	-6.266377	1.515702	1.000000	
146	0.000000	0.000000	0.000000	3.472018	-7.109651	0.835860	1.000000	
[LLowLeg]
#Fr     Tx      Ty      Tz      Rx      Ry      Rz      SF
143	0.000000	0.000000	0.000000	-13.033080	0.000006	-0.000001	1.000000	
144	0.000000	0.000000	0.000000	-12.552440	0.000006	-0.000001	1.000000	
145	0.000000	0.000000	0.000000	-12.101214	0.000006	-0.000001	1.000000	
146	0.000000	0.000000	0.000000	-11.642620	0.000006	-0.000001	1.000000	
[LFoot]
#Fr     Tx      Ty      Tz      Rx      Ry      Rz      SF
143	0.000000	0.000000	0.000000	7.429238	-5.188319	3.834547	1.000000	
144	0.000000	0.000000	0.000000	7.292390	-5.000354	4.329327	1.000000	
145	0.000000	0.000000	0.000000	7.118478	-4.653954	4.526395	1.000000	
146	0.000000	0.000000	0.000000	7.004527	-4.141712	4.448192	1.000000	
[LToe]
#Fr     Tx      Ty      Tz      Rx      Ry      Rz      SF
143	0.000000	0.000000	0.000000	4.769906	0.000018	0.000000	1.000000	
144	0.000000	0.000000	0.000000	4.563299	0.000018	0.000000	1.000000	
145	0.000000	0.000000	0.000000	4.574809	0.000018	0.000000	1.000000	
146	0.000000	0.000000	0.000000	4.644672	0.000018	0.000000	1.000000	
[EndOfFile]
